<svg xmlns="http://www.w3.org/2000/svg" xmlns:xlink="http://www.w3.org/1999/xlink" version="1.1" x="0px" y="0px" viewBox="0 0 850.4 850.4" fill="#666" width="25px" height="25px" enable-background="new 0 0 850.4 850.4" xml:space="preserve"><g><title>Light Mode</title><path d="M295.1,184L190,102.3l45.3,125.4C253.1,210.6,273.2,195.9,295.1,184z"/><path d="M462.2,153.8l-37-127.9l-37,127.9c12.1-1.6,24.5-2.6,37-2.6C437.7,151.2,450.1,152.2,462.2,153.8z"/><path d="M154.8,377.2c4.5-24.8,12.2-48.5,22.9-70.5l-133.1-4.3L154.8,377.2z"/><path d="M805.8,302.4l-133.1,4.3c10.7,22,18.4,45.7,22.9,70.5L805.8,302.4z"/><path d="M44.6,549.7l133.1-4.3c-10.7-22-18.4-45.7-22.9-70.5L44.6,549.7z"/><path d="M672.7,545.4l133.1,4.3L695.6,475C691.1,499.8,683.4,523.4,672.7,545.4z"/><path d="M190,749.8l105.2-81.7c-21.9-11.8-42-26.6-59.9-43.7L190,749.8z"/><path d="M615.1,227.7l45.3-125.4L555.2,184C577.2,195.9,597.3,210.6,615.1,227.7z"/><path d="M555.2,668.1l105.2,81.7l-45.3-125.4C597.3,641.5,577.2,656.3,555.2,668.1z"/><path d="M388.1,698.3l37,127.9l37-127.9c-12.1,1.6-24.5,2.6-37,2.6C412.6,700.9,400.3,700,388.1,698.3z"/><circle cx="425.2" cy="426.1" r="238.3"/></g></svg>
